<?xml version="1.0" encoding="utf-8"?>
<!-- Generator: Adobe Illustrator 19.2.1, SVG Export Plug-In . SVG Version: 6.00 Build 0)  -->
<svg version="1.1" id="Layer_1" xmlns="http://www.w3.org/2000/svg" xmlns:xlink="http://www.w3.org/1999/xlink" x="0px" y="0px"
	 viewBox="0 0 750 305" style="enable-background:new 0 0 750 305;" xml:space="preserve">
<style type="text/css">
	.st0{fill:#5392FF;}
	.st1{fill:#FFFFFF;}
</style>
<rect x="0" class="st0" width="750" height="305"/>
<g>
	<g>
		<path class="st1" d="M526.6,82.9c14.5-5.7,21.6-22.1,15.9-36.5c-5.7-14.5-22.1-21.6-36.5-15.9S484.4,52.6,490.1,67
			C495.8,81.5,512.1,88.6,526.6,82.9"/>
		<path class="st1" d="M634.1,287.5l14.8-5.8c20.3-8,33.4-26.4,35.8-46.7L576,277.7C591.6,291,613.8,295.5,634.1,287.5"/>
	</g>
	
		<rect x="547.2" y="194.9" transform="matrix(0.9304 -0.3665 0.3665 0.9304 -34.5629 239.0402)" class="st1" width="130.1" height="31.3"/>
	<g>
		<path class="st1" d="M408.1,235.7c-8.8,26.4,5.5,54.9,31.9,63.7c26.4,8.8,54.9-5.5,63.7-31.8c8.8-26.4-7.3-138.3-7.3-138.3
			S416.9,209.3,408.1,235.7"/>
		<path class="st1" d="M587.9,58.8c14.5-5.7,21.6-22.1,15.9-36.5C598,7.8,581.7,0.7,567.2,6.4c-14.5,5.7-21.6,22.1-15.9,36.5
			C557,57.4,573.4,64.5,587.9,58.8"/>
		<path class="st1" d="M567.7,75.8L553,81.6c-20,7.9-33.1,25.9-35.7,45.9l107.8-42.5C609.6,72.2,587.7,68,567.7,75.8"/>
		<path class="st1" d="M641.6,72c0,0,64.5,92.8,89,106.1c24.4,13.3,55,4.3,68.3-20.2c13.3-24.4,4.3-55-20.2-68.3
			C754.3,76.4,641.6,72,641.6,72"/>
	</g>
	
		<rect x="523.8" y="136.6" transform="matrix(0.9304 -0.3665 0.3665 0.9304 -14.4246 226.334)" class="st1" width="130.1" height="29.2"/>
	<g>
		<path class="st0" d="M625.1,85.1l-107.8,42.5c-0.8,13.2-0.6,18,5.7,33.9l121-47.7C637.8,97.8,634.7,94.1,625.1,85.1"/>
		<path class="st0" d="M557.5,248.9c6.3,15.9,9,19.8,18.6,28.8L684.6,235c0.8-13.2,0.2-17.8-6.1-33.7L557.5,248.9z"/>
	</g>
	
		<rect x="535.3" y="163.6" transform="matrix(0.9304 -0.3665 0.3665 0.9304 -24.3286 232.5756)" class="st0" width="130.1" height="33.6"/>
</g>
</svg>
