<?xml version="1.0" encoding="utf-8"?>
<!-- Generator: Adobe Illustrator 19.2.1, SVG Export Plug-In . SVG Version: 6.00 Build 0)  -->
<svg version="1.1" id="Layer_1" xmlns="http://www.w3.org/2000/svg" xmlns:xlink="http://www.w3.org/1999/xlink" x="0px" y="0px"
	 viewBox="0 0 1920 1600" style="enable-background:new 0 0 1920 1600;" xml:space="preserve">
<style type="text/css">
	.st0{fill:#5392FF;}
	.st1{clip-path:url(#SVGID_2_);fill:#FFFFFF;}
	.st2{fill:#FFFFFF;}
	.st3{clip-path:url(#SVGID_4_);fill:#FFFFFF;}
	.st4{clip-path:url(#SVGID_6_);fill:#FFFFFF;}
	.st5{clip-path:url(#SVGID_8_);fill:#FFFFFF;}
	.st6{clip-path:url(#SVGID_10_);fill:#FFFFFF;}
	.st7{clip-path:url(#SVGID_12_);fill:#FFFFFF;}
	.st8{clip-path:url(#SVGID_14_);fill-rule:evenodd;clip-rule:evenodd;fill:#5392FF;}
	.st9{clip-path:url(#SVGID_16_);fill:#5392FF;}
	.st10{clip-path:url(#SVGID_18_);fill-rule:evenodd;clip-rule:evenodd;fill:#5392FF;}
	.st11{clip-path:url(#SVGID_20_);fill:#5392FF;}
	.st12{clip-path:url(#SVGID_22_);fill-rule:evenodd;clip-rule:evenodd;fill:#5392FF;}
	.st13{clip-path:url(#SVGID_24_);fill:#5392FF;}
</style>
<rect class="st0" width="1920" height="1604.1"/>
<g>
	<defs>
		<path id="SVGID_1_" d="M1649.3,1395.8c23.7,20.1,57.4,27,88.2,14.9l22.4-8.8c30.8-12.1,50.8-40.2,54.4-71.1L1649.3,1395.8z"/>
	</defs>
	<clipPath id="SVGID_2_">
		<use xlink:href="#SVGID_1_"  style="overflow:visible;"/>
	</clipPath>
	<rect x="1644.3" y="1325.8" class="st1" width="175" height="95.9"/>
</g>
<rect x="1569.9" y="1181.1" transform="matrix(0.9305 -0.3663 0.3663 0.9305 -324.7815 694.9816)" class="st2" width="197.8" height="44.4"/>
<g>
	<defs>
		<path id="SVGID_3_" d="M1542.8,1019.7c-22,8.7-32.8,33.5-24.1,55.6c8.7,22,33.5,32.8,55.5,24.2c22-8.7,32.8-33.5,24.1-55.6
			c-6.6-16.9-22.8-27.1-39.8-27.1C1553.2,1016.8,1547.9,1017.7,1542.8,1019.7"/>
	</defs>
	<clipPath id="SVGID_4_">
		<use xlink:href="#SVGID_3_"  style="overflow:visible;"/>
	</clipPath>
	<rect x="1510.6" y="1011.8" class="st3" width="95.6" height="95.7"/>
</g>
<rect x="1605.5" y="1269.8" transform="matrix(0.9305 -0.3663 0.3663 0.9305 -355.3986 714.27)" class="st2" width="197.8" height="47.6"/>
<g>
	<defs>
		<path id="SVGID_5_" d="M1394,1331.8c-13.4,40.1,8.3,83.5,48.4,96.9c40.1,13.4,83.5-8.3,96.9-48.4c13.4-40.1-11.1-210.4-11.1-210.4
			S1407.3,1291.7,1394,1331.8"/>
	</defs>
	<clipPath id="SVGID_6_">
		<use xlink:href="#SVGID_5_"  style="overflow:visible;"/>
	</clipPath>
	<rect x="1385" y="1164.9" class="st4" width="163.2" height="272.8"/>
</g>
<g>
	<defs>
		<path id="SVGID_7_" d="M1635.9,983c-22,8.7-32.8,33.5-24.1,55.6c8.7,22,33.5,32.8,55.5,24.2c22-8.7,32.8-33.5,24.1-55.6
			c-6.6-16.9-22.8-27.1-39.8-27.1C1646.3,980.1,1641,981,1635.9,983"/>
	</defs>
	<clipPath id="SVGID_8_">
		<use xlink:href="#SVGID_7_"  style="overflow:visible;"/>
	</clipPath>
	<rect x="1603.8" y="975.1" class="st5" width="95.7" height="95.7"/>
</g>
<g>
	<defs>
		<path id="SVGID_9_" d="M1636.6,1088.7l-22.4,8.8c-30.4,12-50.3,39.5-54.2,69.8l163.9-64.6c-15.6-12.9-35.3-20.1-55.7-20.1
			C1657.7,1082.6,1647,1084.6,1636.6,1088.7"/>
	</defs>
	<clipPath id="SVGID_10_">
		<use xlink:href="#SVGID_9_"  style="overflow:visible;"/>
	</clipPath>
	<rect x="1555" y="1077.6" class="st6" width="173.9" height="94.7"/>
</g>
<g>
	<defs>
		<path id="SVGID_11_" d="M1884.2,1244.3c11.4,6.2,23.7,9.2,35.8,9.3v-154.8c-63.1-11.8-171-16-171-16S1847.1,1224.1,1884.2,1244.3"
			/>
	</defs>
	<clipPath id="SVGID_12_">
		<use xlink:href="#SVGID_11_"  style="overflow:visible;"/>
	</clipPath>
	<rect x="1744" y="1077.9" class="st7" width="258.5" height="180.8"/>
</g>
<g>
	<defs>
		<rect id="SVGID_13_" y="598.4" width="1920" height="1000"/>
	</defs>
	<clipPath id="SVGID_14_">
		<use xlink:href="#SVGID_13_"  style="overflow:visible;"/>
	</clipPath>
	<path class="st8" d="M1723.9,1102.7l-163.9,64.6c-1.3,20-0.8,27.3,8.7,51.5l184-72.5C1743.2,1122.2,1738.5,1116.5,1723.9,1102.7"/>
</g>
<g>
	<defs>
		<path id="SVGID_15_" d="M1560,1167.3c-1.3,20-0.8,27.3,8.7,51.5l184-72.5c-9.5-24.2-14.2-29.8-28.8-43.6L1560,1167.3z"/>
	</defs>
	<clipPath id="SVGID_16_">
		<use xlink:href="#SVGID_15_"  style="overflow:visible;"/>
	</clipPath>
	<rect x="480" y="423.4" class="st9" width="1440" height="4220"/>
	<rect x="1554.5" y="1097.7" class="st9" width="203.2" height="126.1"/>
</g>
<g>
	<defs>
		<rect id="SVGID_17_" y="598.4" width="1920" height="1000"/>
	</defs>
	<clipPath id="SVGID_18_">
		<use xlink:href="#SVGID_17_"  style="overflow:visible;"/>
	</clipPath>
	<path class="st10" d="M1621.1,1352c9.5,24.2,13.7,30.1,28.2,43.8l165-65c1.3-20,0.3-27.1-9.2-51.3L1621.1,1352z"/>
</g>
<g>
	<defs>
		<path id="SVGID_19_" d="M1621.1,1352c9.5,24.2,13.7,30.1,28.2,43.8l165-65c1.3-20,0.3-27.1-9.2-51.3L1621.1,1352z"/>
	</defs>
	<clipPath id="SVGID_20_">
		<use xlink:href="#SVGID_19_"  style="overflow:visible;"/>
	</clipPath>
	<rect x="480" y="423.4" class="st11" width="1440" height="4220"/>
	<rect x="1616.1" y="1274.5" class="st11" width="203.7" height="126.4"/>
</g>
<g>
	<defs>
		<rect id="SVGID_21_" y="598.4" width="1920" height="1000"/>
	</defs>
	<clipPath id="SVGID_22_">
		<use xlink:href="#SVGID_21_"  style="overflow:visible;"/>
	</clipPath>
	
		<rect x="1587.4" y="1222.1" transform="matrix(0.9305 -0.3663 0.3663 0.9305 -339.8299 704.4361)" class="st12" width="197.8" height="51.1"/>
</g>
<g>
	<defs>
		
			<rect id="SVGID_23_" x="1587.4" y="1222.1" transform="matrix(0.9305 -0.3663 0.3663 0.9305 -339.8299 704.4362)" width="197.8" height="51.1"/>
	</defs>
	<clipPath id="SVGID_24_">
		<use xlink:href="#SVGID_23_"  style="overflow:visible;"/>
	</clipPath>
	<rect x="480" y="423.4" class="st13" width="1440" height="4220"/>
	<rect x="1579.9" y="1182.6" class="st13" width="212.7" height="130.1"/>
</g>
</svg>
