<svg id="Layer_1" data-name="Layer 1" xmlns="http://www.w3.org/2000/svg" xmlns:xlink="http://www.w3.org/1999/xlink" viewBox="0 0 35.63 25.8"><defs><style>.cls-1{fill:none;}.cls-2{clip-path:url(#clip-path);}.cls-3{fill:#fff;}</style><clipPath id="clip-path" transform="translate(-423.5 -251.2)"><rect class="cls-1" x="423.5" y="251.19" width="35.63" height="25.81"/></clipPath></defs><title>bee</title><g class="cls-2"><path class="cls-3" d="M440.92,253.74a2.54,2.54,0,1,1-2.54-2.54,2.54,2.54,0,0,1,2.54,2.54" transform="translate(-423.5 -251.2)"/><path class="cls-3" d="M446.86,253.74a2.54,2.54,0,1,1-2.54-2.54,2.54,2.54,0,0,1,2.54,2.54" transform="translate(-423.5 -251.2)"/><path class="cls-3" d="M440.64,277h1.43a5.16,5.16,0,0,0,4.55-2.74H436.09a5.16,5.16,0,0,0,4.55,2.74" transform="translate(-423.5 -251.2)"/><path class="cls-3" d="M442.07,257h-1.43a5.16,5.16,0,0,0-4.51,2.67h10.45a5.16,5.16,0,0,0-4.51-2.67" transform="translate(-423.5 -251.2)"/></g><rect class="cls-3" x="11.98" y="17.21" width="11.73" height="2.82"/><rect class="cls-3" x="11.98" y="11.55" width="11.73" height="2.63"/><g class="cls-2"><path class="cls-3" d="M431.53,271a4.54,4.54,0,1,1-7-5.83c1.61-1.92,10.92-6,10.92-6s-2.35,9.93-4,11.85" transform="translate(-423.5 -251.2)"/><path class="cls-3" d="M451.1,271a4.54,4.54,0,0,0,7-5.83c-1.61-1.92-10.92-6-10.92-6s2.35,9.93,4,11.85" transform="translate(-423.5 -251.2)"/></g></svg>