<svg id="Layer_1" data-name="Layer 1" xmlns="http://www.w3.org/2000/svg" viewBox="0 0 248 178"><defs><style>.cls-1{fill:none;stroke:#323232;stroke-miterlimit:10;stroke-width:2px;}</style></defs><title>cv</title><polyline class="cls-1" points="1 178 1 1 158 1 200 43"/><polyline class="cls-1" points="200 43 236 79 236 178"/><polyline class="cls-1" points="236 79 158 79 158 1"/><polyline class="cls-1" points="12 47 12 12 31 12"/><line class="cls-1" x1="12" y1="64" x2="12" y2="54"/><polyline class="cls-1" points="191 68 169 68 169 55"/><line class="cls-1" x1="99" y1="112" x2="45" y2="112"/><line class="cls-1" x1="161" y1="112" x2="114" y2="112"/><line class="cls-1" x1="192" y1="112" x2="175" y2="112"/><line class="cls-1" x1="61" y1="145" x2="45" y2="145"/><line class="cls-1" x1="192" y1="145" x2="74" y2="145"/><line class="cls-1" x1="109" y1="46" x2="45" y2="46"/><line class="cls-1" x1="158" y1="46" x2="125" y2="46"/><line class="cls-1" x1="136" y1="79" x2="45" y2="79"/><line class="cls-1" x1="247" y1="150" x2="247" y2="178"/><line class="cls-1" x1="247" y1="129" x2="247" y2="143"/><line class="cls-1" x1="180" y1="23" x2="180" y2="14"/><path class="cls-1" d="M213,916v28a4,4,0,0,1-4,4h0a4,4,0,0,1-4-4V912.9a6.9,6.9,0,0,1,6.9-6.9h0.18a6.9,6.9,0,0,1,6.93,6.9V944q0,0.51,0,1" transform="translate(-19 -902)"/></svg>