<?xml version="1.0" encoding="utf-8"?>
<!-- Generator: Adobe Illustrator 21.0.0, SVG Export Plug-In . SVG Version: 6.00 Build 0)  -->
<svg version="1.1" id="Layer_1" xmlns="http://www.w3.org/2000/svg" xmlns:xlink="http://www.w3.org/1999/xlink" x="0px" y="0px"
	 viewBox="0 0 32 32" style="enable-background:new 0 0 32 32;" xml:space="preserve">
<style type="text/css">
	.st0{fill:#FFFFFF;}
</style>
<g>
	<path class="st0" d="M12.5,21.5c-1-0.9-1.5-2.2-1.5-3.5c0-2.8,2.2-5,5-5s5,2.2,5,5c0,1.3-0.5,2.6-1.5,3.5l1.4,1.4
		c1.3-1.3,2.1-3.1,2.1-4.9c0-3.9-3.1-7-7-7s-7,3.1-7,7c0,1.9,0.7,3.6,2.1,4.9L12.5,21.5z"/>
	<polygon class="st0" points="15,25 17,25 16,16 	"/>
	<path class="st0" d="M1,4v4v20h30V8V4H1z M29,26H3V10h26V26z"/>
</g>
</svg>
