<?xml version="1.0" encoding="utf-8"?>
<!-- Generator: Adobe Illustrator 19.2.1, SVG Export Plug-In . SVG Version: 6.00 Build 0)  -->
<svg version="1.1" id="Layer_1" xmlns="http://www.w3.org/2000/svg" xmlns:xlink="http://www.w3.org/1999/xlink" x="0px" y="0px"
	 viewBox="0 0 185 138" style="enable-background:new 0 0 185 138;" xml:space="preserve">
<style type="text/css">
	.st0{fill:none;}
	.st1{enable-background:new    ;}
	.st2{fill:#323C3C;}
</style>
<rect y="93.5" class="st0" width="185" height="44.5"/>
<g class="st1">
	<path class="st2" d="M26.3,93.5h5.3c1,0,1.8,0.2,2.6,0.5c0.7,0.3,1.3,0.8,1.8,1.4c0.5,0.6,0.8,1.3,1,2c0.2,0.8,0.3,1.6,0.3,2.5
		s-0.1,1.7-0.3,2.5c-0.2,0.8-0.6,1.5-1,2c-0.5,0.6-1,1-1.8,1.4c-0.7,0.3-1.6,0.5-2.6,0.5h-5.3V93.5z M28.6,104.5h2.2
		c0.9,0,1.6-0.1,2.2-0.4c0.6-0.2,1-0.6,1.3-1s0.5-0.9,0.6-1.5c0.1-0.6,0.2-1.2,0.2-1.8c0-0.6-0.1-1.3-0.2-1.8
		c-0.1-0.6-0.3-1-0.6-1.5s-0.8-0.7-1.3-1s-1.3-0.4-2.2-0.4h-2.2V104.5z"/>
	<path class="st2" d="M40.6,102.2c0,0.4,0.1,0.7,0.2,1s0.3,0.6,0.5,0.9s0.5,0.5,0.8,0.6s0.7,0.2,1.1,0.2c0.6,0,1.1-0.1,1.4-0.4
		s0.6-0.6,0.8-1.2h1.9c-0.1,0.5-0.3,1-0.6,1.3c-0.3,0.4-0.6,0.7-1,1c-0.4,0.3-0.8,0.5-1.3,0.6s-0.9,0.2-1.4,0.2
		c-0.7,0-1.4-0.1-1.9-0.4c-0.6-0.2-1-0.6-1.4-1c-0.4-0.4-0.7-0.9-0.9-1.5c-0.2-0.6-0.3-1.3-0.3-2c0-0.7,0.1-1.3,0.3-1.9
		c0.2-0.6,0.5-1.1,0.9-1.6c0.4-0.5,0.9-0.8,1.4-1.1c0.6-0.3,1.2-0.4,1.9-0.4c0.7,0,1.4,0.2,2,0.5c0.6,0.3,1.1,0.7,1.4,1.2
		c0.4,0.5,0.7,1.1,0.8,1.7c0.2,0.7,0.2,1.3,0.1,2H40.6z M45.4,100.9c0-0.3-0.1-0.6-0.2-0.9c-0.1-0.3-0.3-0.6-0.5-0.8
		c-0.2-0.2-0.4-0.4-0.7-0.5c-0.3-0.1-0.6-0.2-0.9-0.2c-0.4,0-0.7,0.1-1,0.2s-0.5,0.3-0.8,0.5c-0.2,0.2-0.4,0.5-0.5,0.8
		c-0.1,0.3-0.2,0.6-0.2,1H45.4z"/>
	<path class="st2" d="M50.6,103.4c0.1,0.6,0.3,1,0.7,1.3c0.4,0.2,0.9,0.4,1.4,0.4c0.2,0,0.4,0,0.7,0c0.2,0,0.5-0.1,0.7-0.2
		s0.4-0.2,0.5-0.4c0.1-0.2,0.2-0.4,0.2-0.6c0-0.3-0.1-0.5-0.3-0.6c-0.2-0.2-0.4-0.3-0.7-0.4c-0.3-0.1-0.6-0.2-1-0.3
		c-0.4-0.1-0.7-0.1-1.1-0.2c-0.4-0.1-0.8-0.2-1.1-0.3c-0.4-0.1-0.7-0.3-1-0.5c-0.3-0.2-0.5-0.5-0.7-0.8s-0.3-0.7-0.3-1.2
		c0-0.5,0.1-0.9,0.4-1.3c0.2-0.3,0.6-0.6,0.9-0.8s0.8-0.4,1.3-0.4s0.9-0.1,1.3-0.1c0.5,0,0.9,0.1,1.4,0.2c0.4,0.1,0.8,0.3,1.2,0.5
		c0.4,0.2,0.6,0.5,0.9,0.9s0.4,0.8,0.4,1.3h-2.1c-0.1-0.5-0.3-0.8-0.7-1s-0.8-0.3-1.2-0.3c-0.1,0-0.3,0-0.5,0
		c-0.2,0-0.4,0.1-0.6,0.1c-0.2,0.1-0.3,0.2-0.4,0.3c-0.1,0.1-0.2,0.3-0.2,0.5c0,0.3,0.1,0.5,0.3,0.6c0.2,0.2,0.4,0.3,0.7,0.4
		c0.3,0.1,0.6,0.2,1,0.3c0.4,0.1,0.7,0.1,1.1,0.2c0.4,0.1,0.7,0.2,1.1,0.3c0.4,0.1,0.7,0.3,1,0.5c0.3,0.2,0.5,0.5,0.7,0.8
		c0.2,0.3,0.3,0.7,0.3,1.2c0,0.6-0.1,1-0.4,1.4c-0.3,0.4-0.6,0.7-1,0.9c-0.4,0.2-0.8,0.4-1.3,0.5c-0.5,0.1-1,0.2-1.5,0.2
		c-0.6,0-1.1-0.1-1.6-0.2s-0.9-0.3-1.3-0.6c-0.4-0.3-0.7-0.6-0.9-1c-0.2-0.4-0.3-0.9-0.3-1.4H50.6z"/>
	<path class="st2" d="M58.4,93.5h2.1v1.9h-2.1V93.5z M58.4,97h2.1v9.3h-2.1V97z"/>
	<path class="st2" d="M71.3,105.9c0,1.4-0.4,2.5-1.2,3.1c-0.8,0.7-1.9,1-3.4,1c-0.5,0-0.9,0-1.4-0.1c-0.5-0.1-0.9-0.3-1.3-0.5
		c-0.4-0.2-0.7-0.5-1-0.9s-0.4-0.8-0.5-1.4h2.1c0.1,0.3,0.2,0.5,0.3,0.7s0.3,0.3,0.5,0.4c0.2,0.1,0.4,0.2,0.7,0.2c0.2,0,0.5,0,0.8,0
		c0.8,0,1.4-0.2,1.8-0.6c0.4-0.4,0.6-1,0.6-1.8v-1.4h0c-0.3,0.5-0.7,0.9-1.2,1.2s-1,0.4-1.6,0.4c-0.7,0-1.4-0.1-1.9-0.4
		c-0.5-0.3-1-0.6-1.3-1.1c-0.3-0.5-0.6-1-0.7-1.6c-0.2-0.6-0.2-1.2-0.2-1.9c0-0.6,0.1-1.2,0.3-1.8c0.2-0.6,0.5-1.1,0.8-1.5
		s0.8-0.8,1.3-1s1.1-0.4,1.8-0.4c0.6,0,1.1,0.1,1.6,0.4c0.5,0.2,0.9,0.6,1.1,1.2h0V97h2.1V105.9z M66.8,104.7c0.5,0,0.8-0.1,1.2-0.3
		c0.3-0.2,0.6-0.4,0.8-0.7c0.2-0.3,0.3-0.7,0.4-1c0.1-0.4,0.1-0.8,0.1-1.2c0-0.4,0-0.8-0.1-1.2s-0.2-0.7-0.4-1
		c-0.2-0.3-0.5-0.5-0.8-0.7s-0.7-0.3-1.1-0.3c-0.5,0-0.8,0.1-1.2,0.3c-0.3,0.2-0.6,0.4-0.8,0.7c-0.2,0.3-0.3,0.7-0.4,1
		c-0.1,0.4-0.1,0.8-0.1,1.2c0,0.4,0,0.8,0.1,1.1c0.1,0.4,0.2,0.7,0.4,1c0.2,0.3,0.4,0.5,0.8,0.7C66,104.6,66.3,104.7,66.8,104.7z"/>
	<path class="st2" d="M73.4,97h1.9v1.4l0,0c0.3-0.5,0.7-0.9,1.2-1.2c0.5-0.3,1.1-0.4,1.7-0.4c1,0,1.8,0.3,2.4,0.8
		c0.6,0.5,0.9,1.3,0.9,2.4v6.4h-2.1v-5.8c0-0.7-0.2-1.3-0.5-1.6c-0.3-0.3-0.7-0.5-1.4-0.5c-0.3,0-0.7,0.1-0.9,0.2s-0.5,0.3-0.7,0.5
		c-0.2,0.2-0.3,0.5-0.5,0.8c-0.1,0.3-0.2,0.6-0.2,1v5.5h-2.1V97z"/>
	<path class="st2" d="M88.7,97h1.9v1.8h0c0.1-0.3,0.2-0.5,0.4-0.7c0.2-0.2,0.4-0.5,0.6-0.7c0.2-0.2,0.5-0.4,0.8-0.5s0.6-0.2,0.9-0.2
		c0.2,0,0.4,0,0.5,0s0.2,0,0.3,0v2c-0.1,0-0.3,0-0.4-0.1c-0.2,0-0.3,0-0.4,0c-0.3,0-0.7,0.1-1,0.2c-0.3,0.1-0.6,0.3-0.8,0.6
		c-0.2,0.3-0.4,0.6-0.5,1c-0.1,0.4-0.2,0.9-0.2,1.4v4.4h-2.1V97z"/>
	<path class="st2" d="M96.4,102.2c0,0.4,0.1,0.7,0.2,1c0.1,0.3,0.3,0.6,0.5,0.9s0.5,0.5,0.8,0.6c0.3,0.2,0.7,0.2,1.1,0.2
		c0.6,0,1.1-0.1,1.4-0.4s0.6-0.6,0.8-1.2h1.9c-0.1,0.5-0.3,1-0.6,1.3c-0.3,0.4-0.6,0.7-1,1c-0.4,0.3-0.8,0.5-1.3,0.6
		s-0.9,0.2-1.4,0.2c-0.7,0-1.4-0.1-1.9-0.4c-0.6-0.2-1-0.6-1.4-1c-0.4-0.4-0.7-0.9-0.9-1.5c-0.2-0.6-0.3-1.3-0.3-2
		c0-0.7,0.1-1.3,0.3-1.9c0.2-0.6,0.5-1.1,0.9-1.6s0.9-0.8,1.4-1.1c0.6-0.3,1.2-0.4,1.9-0.4c0.7,0,1.4,0.2,2,0.5
		c0.6,0.3,1.1,0.7,1.4,1.2s0.7,1.1,0.8,1.7c0.2,0.7,0.2,1.3,0.1,2H96.4z M101.1,100.9c0-0.3-0.1-0.6-0.2-0.9
		c-0.1-0.3-0.3-0.6-0.5-0.8c-0.2-0.2-0.4-0.4-0.7-0.5c-0.3-0.1-0.6-0.2-0.9-0.2c-0.4,0-0.7,0.1-1,0.2s-0.5,0.3-0.8,0.5
		c-0.2,0.2-0.4,0.5-0.5,0.8c-0.1,0.3-0.2,0.6-0.2,1H101.1z"/>
	<path class="st2" d="M106.3,103.4c0.1,0.6,0.3,1,0.7,1.3c0.4,0.2,0.9,0.4,1.4,0.4c0.2,0,0.4,0,0.7,0c0.2,0,0.5-0.1,0.7-0.2
		s0.4-0.2,0.5-0.4s0.2-0.4,0.2-0.6c0-0.3-0.1-0.5-0.3-0.6c-0.2-0.2-0.4-0.3-0.7-0.4c-0.3-0.1-0.6-0.2-1-0.3
		c-0.4-0.1-0.7-0.1-1.1-0.2c-0.4-0.1-0.8-0.2-1.1-0.3c-0.4-0.1-0.7-0.3-1-0.5s-0.5-0.5-0.7-0.8s-0.3-0.7-0.3-1.2
		c0-0.5,0.1-0.9,0.4-1.3c0.2-0.3,0.6-0.6,0.9-0.8s0.8-0.4,1.3-0.4s0.9-0.1,1.3-0.1c0.5,0,0.9,0.1,1.4,0.2c0.4,0.1,0.8,0.3,1.2,0.5
		c0.4,0.2,0.6,0.5,0.9,0.9c0.2,0.4,0.4,0.8,0.4,1.3h-2.1c-0.1-0.5-0.3-0.8-0.7-1c-0.4-0.2-0.8-0.3-1.2-0.3c-0.1,0-0.3,0-0.5,0
		c-0.2,0-0.4,0.1-0.6,0.1c-0.2,0.1-0.3,0.2-0.4,0.3c-0.1,0.1-0.2,0.3-0.2,0.5c0,0.3,0.1,0.5,0.3,0.6c0.2,0.2,0.4,0.3,0.7,0.4
		c0.3,0.1,0.6,0.2,1,0.3c0.4,0.1,0.7,0.1,1.1,0.2c0.4,0.1,0.7,0.2,1.1,0.3s0.7,0.3,1,0.5s0.5,0.5,0.7,0.8c0.2,0.3,0.3,0.7,0.3,1.2
		c0,0.6-0.1,1-0.4,1.4c-0.3,0.4-0.6,0.7-1,0.9s-0.8,0.4-1.3,0.5c-0.5,0.1-1,0.2-1.5,0.2c-0.6,0-1.1-0.1-1.6-0.2s-0.9-0.3-1.3-0.6
		c-0.4-0.3-0.7-0.6-0.9-1c-0.2-0.4-0.3-0.9-0.3-1.4H106.3z"/>
	<path class="st2" d="M115.7,102.2c0,0.4,0.1,0.7,0.2,1c0.1,0.3,0.3,0.6,0.5,0.9s0.5,0.5,0.8,0.6c0.3,0.2,0.7,0.2,1.1,0.2
		c0.6,0,1.1-0.1,1.4-0.4s0.6-0.6,0.8-1.2h1.9c-0.1,0.5-0.3,1-0.6,1.3c-0.3,0.4-0.6,0.7-1,1c-0.4,0.3-0.8,0.5-1.3,0.6
		s-0.9,0.2-1.4,0.2c-0.7,0-1.4-0.1-1.9-0.4c-0.6-0.2-1-0.6-1.4-1c-0.4-0.4-0.7-0.9-0.9-1.5c-0.2-0.6-0.3-1.3-0.3-2
		c0-0.7,0.1-1.3,0.3-1.9c0.2-0.6,0.5-1.1,0.9-1.6c0.4-0.5,0.9-0.8,1.4-1.1c0.6-0.3,1.2-0.4,1.9-0.4c0.7,0,1.4,0.2,2,0.5
		c0.6,0.3,1.1,0.7,1.4,1.2c0.4,0.5,0.7,1.1,0.8,1.7c0.2,0.7,0.2,1.3,0.1,2H115.7z M120.5,100.9c0-0.3-0.1-0.6-0.2-0.9
		c-0.1-0.3-0.3-0.6-0.5-0.8c-0.2-0.2-0.4-0.4-0.7-0.5c-0.3-0.1-0.6-0.2-0.9-0.2c-0.4,0-0.7,0.1-1,0.2s-0.5,0.3-0.8,0.5
		c-0.2,0.2-0.4,0.5-0.5,0.8c-0.1,0.3-0.2,0.6-0.2,1H120.5z"/>
	<path class="st2" d="M131.9,104.3c0,0.3,0,0.4,0.1,0.5c0.1,0.1,0.2,0.2,0.4,0.2c0.1,0,0.1,0,0.2,0s0.2,0,0.3,0v1.4
		c-0.1,0-0.2,0.1-0.3,0.1c-0.1,0-0.2,0.1-0.4,0.1c-0.1,0-0.2,0-0.4,0.1c-0.1,0-0.2,0-0.3,0c-0.4,0-0.8-0.1-1-0.3
		c-0.3-0.2-0.5-0.5-0.5-0.9c-0.4,0.4-0.9,0.7-1.5,0.9c-0.6,0.2-1.2,0.3-1.7,0.3c-0.4,0-0.8-0.1-1.2-0.2c-0.4-0.1-0.7-0.3-1-0.5
		s-0.5-0.5-0.7-0.8c-0.2-0.3-0.3-0.7-0.3-1.2c0-0.6,0.1-1,0.3-1.4c0.2-0.4,0.5-0.6,0.8-0.8c0.3-0.2,0.7-0.4,1.2-0.4s0.9-0.2,1.3-0.2
		c0.4-0.1,0.7-0.1,1.1-0.2c0.3,0,0.6-0.1,0.9-0.2s0.5-0.2,0.6-0.3c0.1-0.2,0.2-0.4,0.2-0.7c0-0.3-0.1-0.5-0.2-0.6s-0.3-0.3-0.5-0.4
		c-0.2-0.1-0.4-0.2-0.6-0.2c-0.2,0-0.4,0-0.6,0c-0.6,0-1.1,0.1-1.4,0.4c-0.4,0.2-0.6,0.6-0.6,1.1h-2.1c0-0.6,0.2-1.1,0.4-1.5
		c0.3-0.4,0.6-0.7,1-1c0.4-0.2,0.8-0.4,1.3-0.5c0.5-0.1,1-0.1,1.5-0.1c0.5,0,0.9,0,1.3,0.1c0.4,0.1,0.8,0.3,1.2,0.5
		c0.4,0.2,0.6,0.5,0.9,0.8c0.2,0.3,0.3,0.8,0.3,1.3V104.3z M129.8,101.7c-0.3,0.2-0.7,0.3-1.2,0.4s-0.9,0.1-1.4,0.2
		c-0.2,0-0.4,0.1-0.6,0.2c-0.2,0.1-0.4,0.2-0.5,0.3c-0.2,0.1-0.3,0.3-0.4,0.4c-0.1,0.2-0.1,0.4-0.1,0.7c0,0.2,0.1,0.4,0.2,0.6
		c0.1,0.2,0.3,0.3,0.5,0.4c0.2,0.1,0.4,0.2,0.6,0.2s0.4,0.1,0.6,0.1c0.2,0,0.5,0,0.7-0.1c0.3-0.1,0.5-0.2,0.7-0.3
		c0.2-0.1,0.4-0.3,0.6-0.5c0.2-0.2,0.2-0.5,0.2-0.8V101.7z"/>
	<path class="st2" d="M134.1,97h1.9v1.8h0c0.1-0.3,0.2-0.5,0.4-0.7s0.4-0.5,0.6-0.7c0.2-0.2,0.5-0.4,0.8-0.5s0.6-0.2,0.9-0.2
		c0.2,0,0.4,0,0.5,0s0.2,0,0.3,0v2c-0.1,0-0.3,0-0.4-0.1c-0.2,0-0.3,0-0.4,0c-0.3,0-0.7,0.1-1,0.2c-0.3,0.1-0.6,0.3-0.8,0.6
		c-0.2,0.3-0.4,0.6-0.5,1c-0.1,0.4-0.2,0.9-0.2,1.4v4.4h-2.1V97z"/>
	<path class="st2" d="M146.4,100.2c-0.1-0.6-0.3-1-0.7-1.3s-0.9-0.4-1.4-0.4c-0.3,0-0.5,0-0.8,0.1s-0.6,0.3-0.8,0.5s-0.5,0.6-0.6,1
		c-0.2,0.4-0.3,1-0.3,1.7c0,0.4,0,0.8,0.1,1.2c0.1,0.4,0.2,0.7,0.4,1c0.2,0.3,0.5,0.5,0.8,0.7c0.3,0.2,0.7,0.3,1.1,0.3
		c0.6,0,1.1-0.2,1.5-0.6c0.4-0.4,0.6-0.9,0.7-1.6h2.1c-0.2,1.2-0.7,2.1-1.4,2.8c-0.7,0.6-1.7,1-2.9,1c-0.7,0-1.4-0.1-1.9-0.4
		c-0.6-0.2-1-0.6-1.4-1s-0.7-0.9-0.9-1.5c-0.2-0.6-0.3-1.2-0.3-1.9c0-0.7,0.1-1.4,0.3-2c0.2-0.6,0.5-1.1,0.9-1.6
		c0.4-0.4,0.9-0.8,1.4-1.1c0.6-0.3,1.2-0.4,2-0.4c0.5,0,1.1,0.1,1.5,0.2c0.5,0.1,0.9,0.3,1.3,0.6c0.4,0.3,0.7,0.6,0.9,1
		s0.4,0.9,0.4,1.5H146.4z"/>
	<path class="st2" d="M150.1,93.5h2.1v4.8h0c0.3-0.4,0.6-0.8,1.1-1.1s1.1-0.4,1.7-0.4c1,0,1.8,0.3,2.4,0.8c0.6,0.5,0.9,1.3,0.9,2.4
		v6.4h-2.1v-5.8c0-0.7-0.2-1.3-0.5-1.6c-0.3-0.3-0.7-0.5-1.4-0.5c-0.3,0-0.7,0.1-0.9,0.2c-0.3,0.1-0.5,0.3-0.7,0.5
		c-0.2,0.2-0.3,0.5-0.5,0.8c-0.1,0.3-0.2,0.6-0.2,1v5.5h-2.1V93.5z"/>
</g>
<g>
	<g>
		<path class="st2" d="M80.8,0C62.9,0,48.5,14.4,48.5,32.3c0,17.8,14.4,32.3,32.3,32.3S113,50.1,113,32.3C113,14.4,98.6,0,80.8,0z
			 M80.8,61.6c-16.2,0-29.3-13.2-29.3-29.3S64.6,2.9,80.8,2.9s29.3,13.2,29.3,29.3S96.9,61.6,80.8,61.6z"/>
		
			<rect x="115.6" y="58.8" transform="matrix(0.7071 -0.7071 0.7071 0.7071 -16.181 107.5897)" class="st2" width="12.4" height="29"/>
		<circle class="st2" cx="107.2" cy="58.7" r="2.9"/>
	</g>
</g>
</svg>
