<!--?xml version="1.0" encoding="utf-8"?-->
<!-- Generator: Adobe Illustrator 19.2.1, SVG Export Plug-In . SVG Version: 6.00 Build 0)  -->
<svg version="1.1" id="Layer_1" xmlns="http://www.w3.org/2000/svg" xmlns:xlink="http://www.w3.org/1999/xlink" width="32px" height="32px" x="0px" y="0px" viewBox="0 0 40 40" style="enable-background:new 0 0 40 40;" xml:space="preserve">
<style type="text/css">
	.st0{fill:#000;}
</style>
<g>
	<g>
		<g>
			<g>
				
					<rect x="26.8" y="28.9" transform="matrix(0.7071 -0.7071 0.7071 0.7071 -15.5259 30.4134)" class="st0" width="4.3" height="10"></rect>
			</g>
			<g>
				<circle class="st0" cx="23.9" cy="28.9" r="1"></circle>
			</g>
		</g>
		<g>
			<path class="st0" d="M14.3,30.6C8.1,30.6,3,25.5,3,19.3C3,13.1,8.1,8,14.3,8s11.3,5.1,11.3,11.3C25.6,25.5,20.5,30.6,14.3,30.6z
				 M14.3,9.4c-5.5,0-9.9,4.4-9.9,9.9c0,5.5,4.4,9.9,9.9,9.9s9.9-4.5,9.9-9.9C24.2,13.8,19.8,9.4,14.3,9.4z"></path>
		</g>
	</g>
</g>
</svg>