<?xml version="1.0" encoding="utf-8"?>
<!-- Generator: Adobe Illustrator 21.0.0, SVG Export Plug-In . SVG Version: 6.00 Build 0)  -->
<svg version="1.1" id="Layer_1" xmlns="http://www.w3.org/2000/svg" xmlns:xlink="http://www.w3.org/1999/xlink" x="0px" y="0px"
	 viewBox="0 0 32 32" style="enable-background:new 0 0 32 32;" xml:space="preserve">
<style type="text/css">
	.st0{fill:#FFFFFF;}
</style>
<g>
	<g>
		<g>
			<path class="st0" d="M16,6C10.5,6,6,10.5,6,16s4.5,10,10,10s10-4.5,10-10S21.5,6,16,6z M18,18l-8,4l4-8l8-4L18,18z"/>
		</g>
	</g>
	<g>
		<g>
			<path class="st0" d="M16,2C8.3,2,2,8.3,2,16s6.3,14,14,14s14-6.3,14-14S23.7,2,16,2z M16,28C9.4,28,4,22.6,4,16S9.4,4,16,4
				s12,5.4,12,12S22.6,28,16,28z"/>
		</g>
	</g>
	<g>
		<circle class="st0" cx="16" cy="16" r="1"/>
	</g>
</g>
</svg>
