<?xml version="1.0" encoding="utf-8"?>
<!-- Generator: Adobe Illustrator 19.2.1, SVG Export Plug-In . SVG Version: 6.00 Build 0)  -->
<svg version="1.1" id="Layer_1" xmlns="http://www.w3.org/2000/svg" xmlns:xlink="http://www.w3.org/1999/xlink" x="0px" y="0px"
	 viewBox="0 0 185 138" style="enable-background:new 0 0 185 138;" xml:space="preserve">
<style type="text/css">
	.st0{fill:none;}
	.st1{fill:#323C3C;}
	.st2{font-family:'HelveticaNeue-Medium';}
	.st3{font-size:18px;}
</style>
<rect y="93.5" class="st0" width="185" height="44.5"/>
<text transform="matrix(1 0 0 1 24.9648 106.3516)" class="st1 st2 st3">Design research</text>
<g>
	<g>
		<path class="st1" d="M80.8,0C62.9,0,48.5,14.4,48.5,32.3c0,17.8,14.4,32.3,32.3,32.3S113,50.1,113,32.3C113,14.4,98.6,0,80.8,0z
			 M80.8,61.6c-16.2,0-29.3-13.2-29.3-29.3S64.6,2.9,80.8,2.9s29.3,13.2,29.3,29.3S96.9,61.6,80.8,61.6z"/>
		
			<rect x="115.6" y="58.8" transform="matrix(0.7071 -0.7071 0.7071 0.7071 -16.1734 107.6214)" class="st1" width="12.4" height="29"/>
		<circle class="st1" cx="107.2" cy="58.7" r="2.9"/>
	</g>
</g>
</svg>
