<?xml version="1.0" encoding="utf-8"?>
<!-- Generator: Adobe Illustrator 19.2.1, SVG Export Plug-In . SVG Version: 6.00 Build 0)  -->
<svg version="1.1" id="Layer_1" xmlns="http://www.w3.org/2000/svg" xmlns:xlink="http://www.w3.org/1999/xlink" x="0px" y="0px"
	 viewBox="0 0 185 138" style="enable-background:new 0 0 185 138;" xml:space="preserve">
<style type="text/css">
	.st0{fill:none;}
	.st1{fill:#323C3C;}
	.st2{font-family:'HelveticaNeue-Medium';}
	.st3{font-size:18px;}
</style>
<rect y="93.5" class="st0" width="185" height="44.5"/>
<text transform="matrix(1 0 0 1 25.811 106.3516)" class="st1 st2 st3">Design Thinking</text>
<g>
	<g>
		<path class="st1" d="M140.2,1h-2c-12,0-23.6,5.1-31.7,13.8L92.7,29.4L78.5,14.2C70.8,5.9,60,1,48.6,0.4H47
			C35.2,0,23.8,4.3,15.3,12.4C6.8,20.7,1.9,31.7,1.9,43.7v0.6c0,24,19.5,43.3,43.3,43.3h2c12,0,23.6-5.1,31.7-13.8l13.6-14.6
			l13.6,14.6c8.1,8.7,19.7,13.8,31.7,13.8h2c24,0,43.3-19.5,43.3-43.3S164,1,140.2,1z M64.3,60c-4.3,4.7-10.4,7.3-16.9,7.3h-2
			c-12.6,0-23-10.4-23-23v-0.6c0-6.3,2.4-12.2,7.1-16.7c4.3-4.1,10-6.5,15.8-6.5c0.4,0,0.6,0,1,0H48c6.1,0.2,11.8,2.8,15.8,7.3
			L79,44.1L64.3,60z M140.2,67.3h-2c-6.3,0-12.4-2.6-16.9-7.3l-14.8-15.6l14.6-15.6c4.3-4.7,10.4-7.3,16.9-7.3h2
			c12.6,0,23,10.4,23,23S152.8,67.3,140.2,67.3z"/>
	</g>
</g>
</svg>
