<?xml version="1.0" encoding="utf-8"?>
<!-- Generator: Adobe Illustrator 19.2.1, SVG Export Plug-In . SVG Version: 6.00 Build 0)  -->
<svg version="1.1" id="Layer_1" xmlns="http://www.w3.org/2000/svg" xmlns:xlink="http://www.w3.org/1999/xlink" x="0px" y="0px"
	 viewBox="0 0 273.9 109.5" style="enable-background:new 0 0 273.9 109.5;" xml:space="preserve">
<style type="text/css">
	.st0{fill:#FFFFFF;}
</style>
<rect y="0" class="st0" width="53.3" height="7.5"/>
<polygon class="st0" points="61,0 61,7.5 137.3,7.5 136.1,6.4 134.6,5.3 133,4.1 131.2,3.2 129.5,2.4 127.8,1.7 125.9,1.1 124,0.7 
	122.1,0.3 120.2,0 "/>
<polygon class="st0" points="152.4,0 152.4,7.5 198.4,7.5 195.7,0 "/>
<polygon class="st0" points="230.9,0 228.3,7.5 273.9,7.5 273.9,0 "/>
<rect y="14.6" class="st0" width="53.3" height="7.4"/>
<rect x="15.2" y="29.1" class="st0" width="22.8" height="7.6"/>
<rect x="15.2" y="43.6" class="st0" width="22.8" height="7.6"/>
<polygon class="st0" points="142.7,14.6 143.1,15.3 144,17.1 144.7,19 145.6,22 61,22 61,14.6 "/>
<rect x="76.2" y="29.1" class="st0" width="22.8" height="7.6"/>
<polygon class="st0" points="146.3,29.1 146.2,30.3 146,32.2 145.7,34.1 145.3,36 145,36.6 121.9,36.6 121.9,29.1 "/>
<polygon class="st0" points="141.8,43.6 141.1,44.7 139.9,46.2 138.7,47.7 137.3,49.1 135.9,50.3 134.6,51.2 76.2,51.2 76.2,43.6 
	"/>
<polygon class="st0" points="152.4,14.6 200.8,14.6 203.5,22 152.4,22 "/>
<polygon class="st0" points="225.8,14.6 223.2,22 273.9,22 273.9,14.6 "/>
<polygon class="st0" points="167.6,29.1 205.8,29.1 208.5,36.6 167.6,36.6 "/>
<polygon class="st0" points="259,29.1 259,36.6 218.1,36.6 220.7,29.1 "/>
<polygon class="st0" points="192.9,51.2 233.9,51.2 236.2,44.5 236.2,51.2 259,51.2 259,43.6 215.7,43.6 213.3,50.3 210.9,43.6 
	167.6,43.6 167.6,51.2 190.5,51.2 190.5,44.4 "/>
<rect y="101.9" class="st0" width="53.3" height="7.6"/>
<rect y="87.2" class="st0" width="53.3" height="7.6"/>
<rect x="15.2" y="58.2" class="st0" width="22.8" height="7.5"/>
<rect x="15.2" y="72.8" class="st0" width="22.8" height="7.6"/>
<polygon class="st0" points="134.6,58.2 135.9,59.1 137.3,60.4 138.7,61.8 139.9,63.3 141.1,64.8 141.8,65.7 76.2,65.7 76.2,58.2 
	"/>
<rect x="76.2" y="72.8" class="st0" width="22.8" height="7.6"/>
<polygon class="st0" points="145,72.8 145.3,73.5 145.7,75.4 146,77.2 146.2,79.2 146.3,80.3 121.9,80.3 121.9,72.8 "/>
<polygon class="st0" points="145.6,87.2 145.3,88.8 144.7,90.6 144,92.4 143.1,94.2 142.7,94.8 61,94.8 61,87.2 "/>
<polygon class="st0" points="61,101.9 61,109.5 118,109.5 119.9,109.4 121.9,109.2 123.7,108.8 125.6,108.4 127.5,107.8 
	129.2,107.1 131,106.3 132.7,105.3 134.3,104.3 135.9,103.1 137.3,101.9 "/>
<rect x="167.6" y="58.2" class="st0" width="22.9" height="7.5"/>
<polygon class="st0" points="228.8,65.7 197.8,65.7 195.2,58.2 231.4,58.2 "/>
<rect x="236.2" y="58.2" class="st0" width="22.9" height="7.5"/>
<rect x="167.6" y="72.8" class="st0" width="22.9" height="7.6"/>
<polygon class="st0" points="226.5,72.8 223.9,80.3 202.8,80.3 200.2,72.8 "/>
<rect x="236.2" y="72.8" class="st0" width="22.9" height="7.6"/>
<rect x="152.4" y="87.2" class="st0" width="38.1" height="7.6"/>
<polygon class="st0" points="221.5,87.2 218.9,94.8 207.7,94.8 205.1,87.2 "/>
<rect x="236.2" y="87.2" class="st0" width="37.7" height="7.6"/>
<rect x="152.4" y="101.9" class="st0" width="38.1" height="7.6"/>
<rect x="236.2" y="101.9" class="st0" width="37.7" height="7.6"/>
<polygon class="st0" points="210.2,101.9 212.8,109.5 213.9,109.5 216.5,101.9 "/>
</svg>
