<?xml version="1.0" encoding="utf-8"?>
<!-- Generator: Adobe Illustrator 19.2.1, SVG Export Plug-In . SVG Version: 6.00 Build 0)  -->
<svg version="1.1" id="Layer_1" xmlns="http://www.w3.org/2000/svg" xmlns:xlink="http://www.w3.org/1999/xlink" x="0px" y="0px"
	 viewBox="0 0 346.3 65.5" style="enable-background:new 0 0 346.3 65.5;" xml:space="preserve">
<style type="text/css">
	.st0{fill:#FCFDFF;}
</style>
<title>IBM_Design</title>
<path class="st0" d="M0,0h4.9v51.4H0V0z"/>
<path class="st0" d="M11.9,0h21.8c8.6,0,16.5,3,16.5,12.6c0.1,5.5-3.6,10.2-8.9,11.5v0.1c6.6,0.9,10.9,5.8,10.9,12.5
	c0,4.9-1.7,14.6-18.4,14.6H11.9V0z M16.8,22.5h16.9c7.8,0,11.6-3.9,11.6-8.7c0-6.4-3.9-9.6-11.6-9.6H16.8L16.8,22.5L16.8,22.5z
	 M16.8,47.2h16.9c7.3,0,13.5-2.2,13.5-10.6c0-6.6-4.9-9.9-13.5-9.9H16.8L16.8,47.2L16.8,47.2z"/>
<path class="st0" d="M56,0h7.2L81,45.1L98.7,0h7.2v51.4H101V7h-0.1L83.3,51.4h-4.6L61.1,7h-0.1v44.4H56V0z"/>
<path class="st0" d="M126.8,0H149c13.3,0,23.3,8.4,23.3,25.4c0,14.9-7.6,26-23.3,26h-22.2V0z M138.1,41.9h10.1
	c6.5,0,12.8-4,12.8-15.4c0-10.4-3.7-17-14.8-17h-8.1V41.9L138.1,41.9z"/>
<path class="st0" d="M185.3,35.3c0.3,6.6,3.4,9.4,9.1,9.4c4.1,0,7.4-2.5,8.1-4.8h9c-2.9,8.9-9,12.5-17.4,12.5
	c-11.7,0-19-8.1-19-19.6c0-11.2,7.7-19.7,19-19.7c12.7,0,18.9,10.7,18.1,22.1L185.3,35.3L185.3,35.3z M202,28.8
	c-0.9-5.2-3.2-7.9-8.1-7.9c-6.6,0-8.3,5-8.5,7.9H202L202,28.8z"/>
<path class="st0" d="M224.4,39.3c0,4.4,3.9,6.3,7.9,6.3c2.9,0,6.7-1.1,6.7-4.8c0-3.1-4.3-4.2-11.6-5.8c-6-1.4-11.8-3.3-11.8-9.9
	c0-9.5,8.2-12,16.2-12s15.6,2.7,16.4,11.9h-9.7c-0.3-4-3.3-5-7-5c-2.3,0-5.7,0.4-5.7,3.5c0,3.7,5.8,4.2,11.6,5.5
	c6,1.4,11.8,3.5,11.8,10.4c0,9.8-8.6,13-17,13c-8.6,0-17.1-3.2-17.5-13.1L224.4,39.3L224.4,39.3z"/>
<path class="st0" d="M263.7,8.4h-10.2V0h10.2L263.7,8.4L263.7,8.4z M253.5,14.2h10.2v37.2h-10.2L253.5,14.2L253.5,14.2z"/>
<path class="st0" d="M305.5,49c0,6.1-2.2,16.5-19.3,16.5c-7.3,0-15.8-3.5-16.4-12h10.1c0.9,3.8,4,5.1,7.6,5.1c5.7,0,8.3-3.8,8.2-9.2
	v-4.9h-0.1c-2.2,4-6.6,5.8-11.2,5.8c-11.2,0-15.9-8.5-15.9-18.7c0-9.6,5.6-18.4,16-18.4c4.9,0,8.6,1.7,11.1,6h0.1v-5h9.7L305.5,49
	L305.5,49z M295.8,32.3c0-6-2.1-11.4-8.7-11.4c-5.8,0-8.3,5-8.3,10.6c0,5.3,1.9,11.2,8.3,11.2C292.9,42.6,295.8,37.7,295.8,32.3
	L295.8,32.3z"/>
<path class="st0" d="M311.4,14.2h9.7v5.2h0.2c2.4-3.9,6.8-6.3,11.4-6.2c10.9,0,13.6,6.1,13.6,15.3v22.9h-10.2v-21
	c0-6.1-1.7-9.1-6.5-9.1c-5.5,0-7.9,3.1-7.9,10.7v19.5h-10.2V14.2z"/>
</svg>
