<svg id="Layer_1" data-name="Layer 1" xmlns="http://www.w3.org/2000/svg" viewBox="0 0 346.32 65.53"><defs><style>.cls-1{fill:#fcfdff;}</style></defs><title>IBM_Design</title><path class="cls-1" d="M224.59,197.59h4.9V249h-4.9V197.59Z" transform="translate(-224.59 -197.59)"/><path class="cls-1" d="M236.47,197.59h21.75c8.64,0,16.49,3,16.49,12.6a11.67,11.67,0,0,1-8.93,11.52v0.14c6.62,0.86,10.87,5.83,10.87,12.53,0,4.9-1.73,14.62-18.43,14.62H236.47V197.59Zm4.9,22.54h16.85c7.78,0,11.59-3.89,11.59-8.71,0-6.41-3.89-9.65-11.59-9.65H241.36v18.36Zm0,24.7h16.85c7.27,0,13.54-2.23,13.54-10.58,0-6.62-4.9-9.94-13.54-9.94H241.36v20.52Z" transform="translate(-224.59 -197.59)"/><path class="cls-1" d="M280.6,197.59h7.2l17.79,45.08,17.71-45.08h7.2V249h-4.9V204.57h-0.14L307.89,249h-4.61l-17.64-44.43H285.5V249h-4.9V197.59Z" transform="translate(-224.59 -197.59)"/><path class="cls-1" d="M351.38,197.59h22.18c13.32,0,23.33,8.42,23.33,25.42,0,14.91-7.63,26-23.33,26H351.38V197.59Zm11.3,41.91h10.08c6.55,0,12.82-4,12.82-15.41,0-10.37-3.67-17-14.83-17h-8.07v32.4Z" transform="translate(-224.59 -197.59)"/><path class="cls-1" d="M409.92,232.87c0.29,6.55,3.38,9.43,9.14,9.43,4.1,0,7.42-2.52,8.07-4.82h9c-2.88,8.86-9,12.53-17.42,12.53-11.74,0-19-8.06-19-19.59,0-11.16,7.7-19.66,19-19.66,12.67,0,18.87,10.66,18.07,22.11H409.92Zm16.63-6.48c-0.94-5.18-3.17-7.92-8.14-7.92-6.62,0-8.28,5-8.5,7.92h16.63Z" transform="translate(-224.59 -197.59)"/><path class="cls-1" d="M448.94,236.9c0,4.39,3.89,6.26,7.85,6.26,2.88,0,6.7-1.15,6.7-4.75,0-3.1-4.32-4.25-11.59-5.76-6-1.37-11.81-3.31-11.81-9.94,0-9.5,8.21-12,16.2-12s15.63,2.74,16.42,11.88H463c-0.29-4-3.31-5-7-5-2.3,0-5.69.36-5.69,3.46,0,3.67,5.83,4.18,11.59,5.54,6,1.37,11.81,3.53,11.81,10.44,0,9.79-8.57,13-17,13-8.64,0-17.14-3.24-17.5-13.11h9.72Z" transform="translate(-224.59 -197.59)"/><path class="cls-1" d="M488.32,206H478.1v-8.42h10.23V206Zm-10.23,5.76h10.23V249H478.1V211.77Z" transform="translate(-224.59 -197.59)"/><path class="cls-1" d="M530.08,246.62c0,6.12-2.23,16.49-19.3,16.49-7.34,0-15.84-3.53-16.42-12h10.15c0.94,3.82,4,5.11,7.63,5.11,5.69,0,8.28-3.82,8.21-9.22v-4.9h-0.14c-2.23,4-6.62,5.76-11.16,5.76-11.23,0-15.91-8.5-15.91-18.72,0-9.65,5.62-18.43,16-18.43,4.9,0,8.57,1.66,11.09,6h0.14v-5h9.72v34.85Zm-9.72-16.71c0-6-2.09-11.45-8.71-11.45-5.76,0-8.28,5-8.28,10.58,0,5.33,1.94,11.16,8.28,11.16C517.48,240.22,520.36,235.25,520.36,229.92Z" transform="translate(-224.59 -197.59)"/><path class="cls-1" d="M536,211.77h9.72V217h0.22a13.12,13.12,0,0,1,11.38-6.19c10.87,0,13.61,6.12,13.61,15.34V249H560.68V228c0-6.12-1.73-9.14-6.55-9.14-5.54,0-7.92,3.1-7.92,10.66V249H536V211.77Z" transform="translate(-224.59 -197.59)"/></svg>