<?xml version="1.0" encoding="utf-8"?>
<!-- Generator: Adobe Illustrator 21.0.0, SVG Export Plug-In . SVG Version: 6.00 Build 0)  -->
<svg version="1.1" id="Layer_3" xmlns="http://www.w3.org/2000/svg" xmlns:xlink="http://www.w3.org/1999/xlink" x="0px" y="0px"
	 viewBox="0 0 32 32" style="enable-background:new 0 0 32 32;" xml:space="preserve">
<style type="text/css">
	.st0{fill:#FFFFFF;}
</style>
<g>
	<path class="st0" d="M2.9,10.9c-0.7,0.7-1.2,1.5-1.6,2.3C1,14.1,0.8,15,0.8,15.9s0.2,1.8,0.5,2.7c0.3,0.9,0.9,1.7,1.6,2.4
		c0.7,0.7,1.5,1.2,2.4,1.6c0.9,0.3,1.8,0.5,2.7,0.5s1.8-0.2,2.7-0.5s1.6-0.9,2.3-1.6l3-3l3,3c0.7,0.7,1.5,1.2,2.3,1.6
		c0.9,0.4,1.8,0.5,2.7,0.5c0.9,0,1.8-0.2,2.7-0.5c0.9-0.3,1.7-0.9,2.4-1.6c0.7-0.7,1.2-1.5,1.6-2.4c0.3-0.9,0.5-1.8,0.5-2.7
		c0-0.9-0.2-1.8-0.5-2.7s-0.9-1.7-1.6-2.3c-1.4-1.4-3.2-2.1-5-2.1c-0.9,0-1.8,0.2-2.7,0.5c-0.9,0.3-1.7,0.9-2.4,1.6l-3,3l-3-3
		c-0.7-0.7-1.5-1.2-2.4-1.6C9.7,9.1,8.8,8.8,7.9,8.8C6.1,8.8,4.3,9.6,2.9,10.9z M21.1,12.9c0.4-0.4,0.9-0.7,1.4-0.9s1.1-0.3,1.6-0.3
		c1.1,0,2.1,0.4,2.9,1.2c0.4,0.4,0.7,0.9,0.9,1.4c0.2,0.5,0.3,1,0.3,1.6c0,0.5-0.1,1.1-0.3,1.6c-0.2,0.5-0.5,1-0.9,1.4
		s-0.9,0.7-1.4,0.9c-0.5,0.2-1.1,0.3-1.6,0.3s-1.1-0.1-1.6-0.3c-0.5-0.2-1-0.5-1.4-0.9l-3-3L21.1,12.9z M11,12.9l3,3l-3,3
		c-0.4,0.4-0.9,0.7-1.4,0.9c-0.5,0.2-1,0.3-1.6,0.3S6.9,20,6.4,19.8s-1-0.5-1.4-0.9S4.3,18,4.1,17.5c-0.2-0.5-0.3-1.1-0.3-1.6
		s0.1-1.1,0.3-1.6c0.2-0.5,0.5-1,0.9-1.4c0.8-0.8,1.9-1.2,2.9-1.2c0.6,0,1.1,0.1,1.6,0.3C10.1,12.2,10.6,12.6,11,12.9z"/>
</g>
</svg>
