<?xml version="1.0" encoding="utf-8"?>
<!-- Generator: Adobe Illustrator 19.2.1, SVG Export Plug-In . SVG Version: 6.00 Build 0)  -->
<svg version="1.1" id="Ebene_1" xmlns="http://www.w3.org/2000/svg" xmlns:xlink="http://www.w3.org/1999/xlink" x="0px" y="0px"
	 viewBox="0 0 165.2 54.7" style="enable-background:new 0 0 165.2 54.7;" xml:space="preserve">
<g>
	<path d="M0,0.5h2.1v22H0V0.5z"/>
	<path d="M6.6,0.5h9.3c3.7,0,7,1.3,7,5.4c0,2.3-1.5,4.4-3.8,4.9v0.1c2.8,0.4,4.6,2.5,4.6,5.4c0,2.1-0.7,6.2-7.9,6.2H6.6V0.5z
		 M8.7,10.2h7.2c3.3,0,5-1.7,5-3.7c0-2.7-1.7-4.1-5-4.1H8.7V10.2z M8.7,20.7h7.2c3.1,0,5.8-1,5.8-4.5c0-2.8-2.1-4.2-5.8-4.2H8.7
		V20.7z"/>
	<path d="M27,0.5h3.1l7.6,19.3l7.6-19.3h3.1v22h-2.1v-19h-0.1l-7.5,19h-2l-7.5-19h-0.1v19H27V0.5z"/>
	<path d="M62.9,15.2c0,2.9,2.3,4.1,4.9,4.1c1.7,0,4.3-0.5,4.3-2.7c0-2.4-3.3-2.7-6.5-3.6c-3.3-0.8-6.6-2.2-6.6-6.2
		c0-4.5,4.2-6.6,8.2-6.6c4.6,0,8.8,2,8.8,7.1h-4.7c-0.2-2.6-2-3.3-4.3-3.3c-1.5,0-3.3,0.6-3.3,2.5c0,1.7,1,1.9,6.6,3.3
		c1.6,0.4,6.5,1.4,6.5,6.4c0,4-3.1,7-9.1,7c-4.9,0-9.4-2.4-9.4-7.8H62.9z"/>
	<path d="M84.5,6.6h3.2v2.9h-3.2v7.9c0,1.5,0.4,1.8,1.8,1.8c0.5,0,1,0,1.4-0.1v3.4c-0.7,0.1-1.7,0.2-2.6,0.2c-2.7,0-5-0.6-5-3.8V9.5
		h-2.6V6.6h2.6V1.8h4.4V6.6z"/>
	<path d="M105,22.5h-4.2v-2.2h-0.1c-1.1,1.8-3,2.6-4.9,2.6c-4.6,0-5.8-2.6-5.8-6.6V6.6h4.4v9c0,2.6,0.7,3.9,2.8,3.9
		c2.4,0,3.4-1.3,3.4-4.6V6.6h4.4V22.5z"/>
	<path d="M118.9,20.5L118.9,20.5c-1.1,1.7-2.8,2.5-4.9,2.5c-4.8,0-7.1-4.1-7.1-8.5c0-4.3,2.4-8.2,7-8.2c1.9,0,3.7,0.8,4.7,2.4h0.1
		v-8h4.4v22h-4.2V20.5z M115.1,9.4c-2.9,0-3.8,2.5-3.8,5.1c0,2.5,1.1,5.1,3.8,5.1c2.9,0,3.8-2.5,3.8-5.1
		C118.8,11.9,117.9,9.4,115.1,9.4z"/>
	<path d="M130.4,4.1H126V0.5h4.4V4.1z M126,6.6h4.4v15.9H126V6.6z"/>
	<path d="M141,6.2c5,0,8.2,3.3,8.2,8.4c0,5-3.2,8.4-8.2,8.4c-5,0-8.2-3.3-8.2-8.4C132.8,9.5,136,6.2,141,6.2z M141,19.6
		c3,0,3.9-2.5,3.9-5.1c0-2.6-0.9-5.1-3.9-5.1c-3,0-3.8,2.6-3.8,5.1C137.1,17.1,138,19.6,141,19.6z"/>
	<path d="M154.7,17.3c0,1.9,1.7,2.7,3.4,2.7c1.2,0,2.9-0.5,2.9-2c0-1.3-1.8-1.8-5-2.5c-2.6-0.6-5-1.4-5-4.2c0-4.1,3.5-5.1,6.9-5.1
		c3.4,0,6.7,1.2,7,5.1h-4.2c-0.1-1.7-1.4-2.2-3-2.2c-1,0-2.4,0.2-2.4,1.5c0,1.6,2.5,1.8,5,2.4c2.6,0.6,5,1.5,5,4.5
		c0,4.2-3.7,5.5-7.3,5.5c-3.7,0-7.3-1.4-7.5-5.6H154.7z"/>
</g>
<g>
	<path d="M0,33.2h7c2.8,0,5.3,1,5.3,4.1c0,1.7-1.2,3.4-2.9,3.7v0c2.1,0.3,3.5,1.9,3.5,4.1c0,1.6-0.6,4.7-6,4.7H0V33.2z M1.6,40.5H7
		c2.5,0,3.8-1.3,3.8-2.8c0-2.1-1.3-3.1-3.8-3.1H1.6V40.5z M1.6,48.5H7c2.4,0,4.4-0.7,4.4-3.4c0-2.1-1.6-3.2-4.4-3.2H1.6V48.5z"/>
	<path d="M25.9,43.9c0,3.5-2,6.4-5.7,6.4c-3.7,0-5.7-2.9-5.7-6.4c0-3.5,2-6.4,5.7-6.4C23.9,37.5,25.9,40.4,25.9,43.9z M16,43.9
		c0,2.5,1.4,5.1,4.2,5.1c2.8,0,4.2-2.6,4.2-5.1c0-2.5-1.4-5.1-4.2-5.1C17.4,38.7,16,41.3,16,43.9z M17.4,35.7v-2.4H19v2.4H17.4z
		 M21.5,35.7v-2.4h1.6v2.4H21.5z"/>
	<path d="M28.2,33.2h1.5v6.9h0c0.6-1.7,2.4-2.6,4.2-2.6c3.7,0,5.4,2.9,5.4,6.4c0,3.4-1.7,6.4-5.4,6.4c-2,0-3.6-1-4.3-2.6h0v2.3h-1.4
		V33.2z M33.9,38.7c-3.1,0-4.2,2.6-4.2,5.1s1.1,5.1,4.2,5.1c2.8,0,3.9-2.6,3.9-5.1S36.7,38.7,33.9,38.7z"/>
	<path d="M41.9,33.2h1.5v16.7h-1.5V33.2z"/>
	<path d="M46.7,33.2h1.5v2.4h-1.5V33.2z M46.7,37.9h1.5v12h-1.5V37.9z"/>
	<path d="M51.5,37.9H53v2.1h0c0.6-1.4,2.1-2.4,3.8-2.4c3.4,0,4.4,1.8,4.4,4.6v7.7h-1.5v-7.5c0-2.1-0.7-3.6-3.1-3.6
		c-2.4,0-3.7,1.8-3.8,4.1v7h-1.5V37.9z"/>
	<path d="M74.5,48.9c0,3.6-1.4,5.8-5.3,5.8c-2.4,0-4.8-1.1-5-3.6h1.5c0.3,1.8,1.9,2.4,3.5,2.4c2.7,0,3.9-1.6,3.9-4.5v-1.6h0
		c-0.7,1.5-2.1,2.5-3.8,2.5c-3.8,0-5.4-2.7-5.4-6.2c0-3.3,2-6.1,5.4-6.1c1.8,0,3.2,1.1,3.8,2.4h0v-2.1h1.5V48.9z M73,43.7
		c0-2.4-1.1-5-3.9-5c-2.8,0-4,2.5-4,5c0,2.4,1.2,4.8,4,4.8C71.7,48.5,73,46.2,73,43.7z"/>
	<path d="M78.5,44.3c0,2.1,1.2,4.7,4,4.7c2.1,0,3.3-1.2,3.8-3.1h1.5c-0.6,2.7-2.2,4.3-5.2,4.3c-3.8,0-5.4-2.9-5.4-6.4
		c0-3.2,1.6-6.4,5.4-6.4c3.8,0,5.4,3.4,5.3,6.8H78.5z M86.3,43c-0.1-2.2-1.5-4.3-3.8-4.3c-2.4,0-3.7,2.1-4,4.3H86.3z"/>
	<path d="M90.3,37.9h1.5v2.1h0c0.6-1.4,2.1-2.4,3.8-2.4c3.4,0,4.4,1.8,4.4,4.6v7.7h-1.5v-7.5c0-2.1-0.7-3.6-3.1-3.6
		c-2.4,0-3.7,1.8-3.8,4.1v7h-1.5V37.9z"/>
</g>
</svg>
