<?xml version="1.0" encoding="utf-8"?>
<!-- Generator: Adobe Illustrator 19.1.0, SVG Export Plug-In . SVG Version: 6.00 Build 0)  -->
<svg version="1.1" id="Ebene_1" xmlns="http://www.w3.org/2000/svg" xmlns:xlink="http://www.w3.org/1999/xlink" x="0px" y="0px"
	 viewBox="0 0 300 91.4217453" style="enable-background:new 0 0 300 91.4217453;" xml:space="preserve">
<style type="text/css">
	.st0{fill:#FFFFFF;}
</style>
<g>
	<g>
		<path class="st0" d="M0,0.9424424h5.2700944v39.6096611H0V0.9424424z"/>
		<path class="st0" d="M13.0317039,0.9424424h14.3695374c3.4393749,0,8.1515846,0,10.4833183,1.4420993
			c2.6079674,1.5544884,4.6607552,4.327652,4.6607552,8.2666826c0,4.2152634-2.1665306,7.3784027-5.8821373,8.8760204v0.1110344
			c4.8828239,1.0534782,7.5449524,4.6594028,7.5449524,9.5408745c0,5.7697525-4.2139091,11.3729515-12.0378036,11.3729515
			H13.0317039V0.9424424z M18.3017979,17.9741096h10.5401897c5.9904671,0,8.4332352-2.1083088,8.4332352-6.3249254
			c0-5.5476823-3.8293495-6.2680545-8.4332352-6.2680545H18.3017979V17.9741096z M18.3017979,36.1147728h13.2023182
			c4.6065941,0,7.4339218-2.7190018,7.4339218-7.1008167c0-5.1604137-4.1597481-6.6025124-8.5984344-6.6025124H18.3017979
			V36.1147728z"/>
		<path class="st0" d="M49.8032074,0.9424424h7.2118492l12.481945,33.2860909L82.03582,0.9424424h7.2091446v39.6096611h-4.9911575
			V7.6004729h-0.1110306L71.7718658,40.5521049h-4.4955597L54.9053955,7.6004729h-0.108326v32.9516335h-4.9938622V0.9424424z"/>
		<path class="st0" d="M115.3625336,27.4039497c0,5.2700958,4.1028748,7.3228874,8.7636337,7.3228874
			c3.0493927,0,7.7128525-0.8869247,7.7128525-4.9369907c0-4.3262978-5.9931717-4.9369907-11.7642746-6.5456409
			c-5.8794327-1.4421005-11.8130264-3.9390316-11.8130264-11.2619171C108.2617188,3.8279953,115.9150009,0,123.0699768,0
			c8.2680359,0,15.869873,3.6059256,15.869873,12.7595329h-8.4332428c-0.2789459-4.7162743-3.6072769-5.9918213-7.8211899-5.9918213
			c-2.7758713,0-5.9931717,1.1645122-5.9931717,4.4942045c0,3.0507507,1.8875885,3.4948902,11.8157349,5.9904661
			c2.9410706,0.6662102,11.7615662,2.6079674,11.7615662,11.539505c0,7.2673664-5.6573486,12.7026615-16.4764862,12.7026615
			c-8.7663422,0-17.0316696-4.3262978-16.8637619-14.0905991H115.3625336z"/>
		<path class="st0" d="M154.3520203,11.871254h5.7711182v5.2700939h-5.7711182v14.2016335
			c0,2.6634808,0.666214,3.3283367,3.3283386,3.3283367c0.8882904,0,1.719696-0.0555153,2.4427795-0.2220688v6.1583748
			c-1.332428,0.2220688-3.0548248,0.2775841-4.6065979,0.2775841c-4.8828278,0-9.042572-1.0548286-9.042572-6.8232269V17.1413479
			h-4.7717896V11.871254h4.7717896V3.2728209h7.8780518V11.871254z"/>
		<path class="st0" d="M191.3483124,40.5521049h-7.4880829v-3.9945488h-0.1652069
			c-1.9986267,3.2728233-5.4380035,4.7717934-8.7663422,4.7717934c-8.376358,0-10.4833069-4.7162743-10.4833069-11.817091V11.871254
			h7.875351v16.1989059c0,4.71492,1.3324127,7.0452995,5.0480194,7.0452995c4.2734833,0,6.1042175-2.3858986,6.1042175-8.2098122
			V11.871254h7.875351V40.5521049z"/>
		<path class="st0" d="M216.3609467,36.8906631h-0.1110382c-1.830719,3.106266-4.9911499,4.4386864-8.7094727,4.4386864
			c-8.6525879,0-12.8719177-7.3784027-12.8719177-15.3674984c0-7.7101536,4.2734985-14.8664875,12.7067261-14.8664875
			c3.3825073,0,6.7108459,1.4420996,8.4873962,4.2707806h0.1083221V0.9424424h7.8807678v39.6096611h-7.4907837V36.8906631z
			 M209.482193,17.0303135c-5.1590576,0-6.9329071,4.4942036-6.9329071,9.1536064
			c0,4.4942055,2.0527954,9.2091274,6.9329071,9.2091274c5.1590576,0,6.7677155-4.5497246,6.7677155-9.2646446
			C216.2499084,21.4689999,214.5843811,17.0303135,209.482193,17.0303135z"/>
		<path class="st0" d="M237.1569672,7.4339209h-7.878067V0.9424424h7.878067V7.4339209z M229.2789001,11.871254h7.878067v28.680851
			h-7.878067V11.871254z"/>
		<path class="st0" d="M256.2360229,11.0953636c9.0452576,0,14.8678284,5.9904671,14.8678284,15.1440754
			c0,9.0980892-5.8225708,15.0899105-14.8678284,15.0899105c-8.9857178,0-14.8109894-5.9918213-14.8109894-15.0899105
			C241.4250336,17.0858307,247.2503052,11.0953636,256.2360229,11.0953636z M256.2360229,35.3930473
			c5.3838196,0,6.9924622-4.5497246,6.9924622-9.1536083s-1.6086426-9.2091255-6.9924622-9.2091255
			c-5.3242798,0-6.9329224,4.6052399-6.9329224,9.2091255S250.9117432,35.3930473,256.2360229,35.3930473z"/>
		<path class="st0" d="M280.9155273,31.231945c0,3.3838577,2.9952393,4.8273087,6.0473633,4.8273087
			c2.2179871,0,5.1590576-0.888279,5.1590576-3.6614418c0-2.3858967-3.3283386-3.2741756-8.9315491-4.4386864
			c-4.6065979-1.0534782-9.0967407-2.5510941-9.0967407-7.6559906c0-7.3215322,6.3208618-9.2077713,12.479248-9.2077713
			c6.2125244,0,12.0404968,2.1069546,12.6498413,9.1522541h-7.4880676
			c-0.2220764-3.0507526-2.5538025-3.8821602-5.3838501-3.8821602c-1.7738342,0-4.3818054,0.2762337-4.3818054,2.6621304
			c0,2.8300343,4.4955444,3.2173023,8.9315186,4.2721348C295.5044556,24.353199,300,26.0173683,300,31.3429813
			c0,7.5449543-6.6025085,9.9863682-13.0912781,9.9863682c-6.6593933,0-13.2050171-2.4969292-13.4812622-10.0974045H280.9155273z"/>
	</g>
	<g>
		<path class="st0" d="M0.0135408,58.0793686h9.3377619c2.2342386,0,5.2998848,0,6.8137512,0.9370232
			c1.6953125,1.0087929,3.0277309,2.8124352,3.0277309,5.3716545c0,2.7406616-1.4055386,4.7948074-3.8212242,5.7683945v0.0717697
			c3.1739731,0.6851654,4.9044914,3.0290833,4.9044914,6.2017059c0,3.7494583-2.7406654,7.3905869-7.8238964,7.3905869H0.0135408
			V58.0793686z M3.4393733,69.1476517h6.8489571c3.8943453,0,5.4813309-1.3703384,5.4813309-4.1110001
			c0-3.6045723-2.4888058-4.0730858-5.4813309-4.0730858H3.4393733V69.1476517z M3.4393733,80.9363022h8.5794754
			c2.9925261,0,4.8313713-1.7670746,4.8313713-4.6147156c0-3.3527145-2.7027512-4.2897415-5.5869493-4.2897415H3.4393733V80.9363022
			z"/>
		<path class="st0" d="M31.6314011,64.74823c5.9119301,0,9.0479889,4.2910919,9.0479889,9.7710724
			c0,5.4434128-3.1360588,9.7331543-9.0479889,9.7331543c-5.9146385,0-9.0506973-4.2897415-9.0506973-9.7331543
			C22.5807037,69.0393219,25.7167625,64.74823,31.6314011,64.74823z M31.6314011,81.5497055
			c3.2064705,0,5.8036041-2.5240173,5.8036041-7.0304031c0-4.5063934-2.5971336-7.0669632-5.8036041-7.0669632
			c-3.2091789,0-5.8063126,2.5605698-5.8063126,7.0669632C25.8250885,79.0256882,28.4222221,81.5497055,31.6314011,81.5497055z
			 M26.6185818,58.3677864h3.2443848v3.7494583h-3.2443848V58.3677864z M33.3971252,58.3677864H36.64151v3.7494583h-3.2443848
			V58.3677864z"/>
		<path class="st0" d="M43.7423286,58.0793686h3.0656433v9.6261826h0.0704117
			c1.0101471-2.0555038,3.3527145-2.9573212,5.9498482-2.9573212c5.7331886,0,8.5794754,4.5429535,8.5794754,9.8062744
			c0,5.2998886-2.8110809,9.6979523-8.5063553,9.6979523c-1.8767624,0-4.6878395-0.7203751-6.0229683-2.9194031H46.807972v2.4874496
			h-3.0656433V58.0793686z M52.3949242,67.4523392c-4.1462059,0-5.6952782,3.5693588-5.6952782,7.0304031
			c0,3.6411285,1.6573982,7.0669632,5.8767242,7.0669632c4.1814117,0,5.5869522-3.5693665,5.5869522-7.210495
			C58.1633224,70.8416061,56.3623886,67.4523392,52.3949242,67.4523392z"/>
		<path class="st0" d="M64.7956238,58.0793686h3.0656433v25.7411346h-3.0656433V58.0793686z"/>
		<path class="st0" d="M75.4685135,61.8288269h-3.0656433v-3.7494583h3.0656433V61.8288269z M72.4028702,65.1815338h3.0656433
			v18.6389694h-3.0656433V65.1815338z"/>
		<path class="st0" d="M79.9369888,65.1815338h2.884201v2.9559708H82.89431
			c1.2972107-2.3073578,3.3527145-3.3892746,6.0554657-3.3892746c4.9044876,0,6.4183578,2.8124313,6.4183578,6.8137512v12.258522
			H92.305191V71.2017975c0-2.3073654-1.4434509-3.7494583-3.7860184-3.7494583
			c-3.7128983,0-5.5165405,2.4874496-5.5165405,5.8401642v10.5279999h-3.0656433V65.1815338z"/>
		<path class="st0" d="M115.6279373,82.2348709c0,6.0920258-2.7379608,9.1563187-8.6526031,9.1563187
			c-3.4962387,0-7.5341187-1.4421005-7.7155685-5.4799805h3.0656509c0.1083221,2.199028,2.8489914,3.0290833,4.8313675,3.0290833
			c4.0026703,0,5.5869522-2.8841934,5.5869522-7.0669632v-1.2254486h-0.0704117
			c-1.0453568,2.2708054-3.4258347,3.3892746-5.8063126,3.3892746c-5.5517426,0-8.3276138-4.362854-8.3276138-9.4460907
			c0-4.3980637,2.1286163-9.8428345,8.6173859-9.8428345c2.3425674,0,4.4332733,1.0453568,5.5517426,3.100853h0.0352097v-2.6675491
			h2.884201V82.2348709z M112.6002045,74.122551c0-3.2809448-1.4407501-6.6702118-5.2998886-6.6702118
			c-3.9295502,0-5.5165329,3.2091751-5.5165329,6.7785416c0,3.3527145,1.226799,7.1021729,5.264679,7.1021729
			C111.0863342,81.3330536,112.6002045,77.6201553,112.6002045,74.122551z"/>
		<path class="st0" d="M135.8877411,77.9072189c-0.8287048,4.1462021-3.7481079,6.3452377-7.9674301,6.3452377
			c-5.9471436,0-8.7609253-4.1448517-8.9396667-9.8062744c0-5.6235123,3.6776962-9.6979523,8.7609253-9.6979523
			c6.5970993,0,8.6146774,6.1651459,8.435936,10.6715393H122.225029c-0.1083221,3.2457352,1.7305222,6.1299362,5.8036118,6.1299362
			c2.5592194,0,4.2897339-1.190239,4.8313599-3.6424866H135.8877411z M132.9331207,72.7156601
			c-0.1814423-2.9194031-2.3073578-5.2633209-5.3730011-5.2633209c-3.1712646,0-5.1536407,2.3791199-5.3350906,5.2633209
			H132.9331207z"/>
		<path class="st0" d="M139.6033478,65.1815338h2.884201v2.9559708h0.0704041
			c1.2999268-2.3073578,3.355423-3.3892746,6.0581665-3.3892746c4.9017944,0,6.4183655,2.8124313,6.4183655,6.8137512v12.258522
			h-3.0656433V71.2017975c0-2.3073654-1.4407501-3.7494583-3.786026-3.7494583
			c-3.7128906,0-5.5165405,2.4874496-5.5165405,5.8401642v10.5279999h-3.0629272V65.1815338z"/>
	</g>
</g>
</svg>
