<?xml version="1.0" encoding="utf-8"?>
<!-- Generator: Adobe Illustrator 19.1.0, SVG Export Plug-In . SVG Version: 6.00 Build 0)  -->
<svg version="1.1" id="Layer_1" xmlns="http://www.w3.org/2000/svg" xmlns:xlink="http://www.w3.org/1999/xlink" x="0px" y="0px"
	 width="32px" height="32px" viewBox="-379 291 32 32" style="enable-background:new -379 291 32 32;" xml:space="preserve">
<g>
	<path d="M-354,292l-7.6,7.6l-0.7,0.7l-1.3,1.3l-0.7,0.7l-1.3,1.3l-0.7,0.7l-1.3,1.3l-0.7,0.7l-1.3,1.3l-0.7,0.7l-1.3,1.3l-0.7,0.7
		l-2.6,2.6l-3,3l6,6l3-3l21-21L-354,292z M-370.4,317.6l-3.2-3.2l2.6-2.6l1.6,1.6l0.7-0.7l-1.6-1.6l1.3-1.3l1.6,1.6l0.7-0.7
		l-1.6-1.6l1.3-1.3l1.6,1.6l0.7-0.7l-1.6-1.6l1.3-1.3l1.6,1.6l0.7-0.7l-1.6-1.6l1.3-1.3l1.6,1.6l0.7-0.7l-1.6-1.6l1.3-1.3l1.6,1.6
		l0.7-0.7l-1.6-1.6l6.2-6.2l3.2,3.2L-370.4,317.6z"/>
	<circle cx="-354" cy="298" r="1"/>
</g>
<g>
	<rect x="-354.6" y="313.3" transform="matrix(-0.7071 -0.7071 0.7071 -0.7071 -826.2609 292.7513)" width="4.2" height="8.5"/>
	<path d="M-368,296l-6,6l15,15l6-6L-368,296z M-371.2,302l3.2-3.2l12.2,12.2l-3.2,3.2L-371.2,302z"/>
	<polygon points="-378,292 -376,297 -373,294 	"/>
</g>
</svg>
