<?xml version="1.0" encoding="utf-8"?>
<!-- Generator: Adobe Illustrator 19.2.1, SVG Export Plug-In . SVG Version: 6.00 Build 0)  -->
<svg version="1.1" id="Layer_1" xmlns="http://www.w3.org/2000/svg" xmlns:xlink="http://www.w3.org/1999/xlink" x="0px" y="0px"
	 viewBox="0 0 185 138" style="enable-background:new 0 0 185 138;" xml:space="preserve">
<style type="text/css">
	.st0{fill:none;}
	.st1{fill:#323C3C;}
	.st2{font-family:'HelveticaNeue-Medium';}
	.st3{font-size:18px;}
</style>
<rect y="93.5" class="st0" width="185" height="44.5"/>
<rect y="90.9" class="st0" width="185" height="20.6"/>
<text transform="matrix(1 0 0 1 37.4746 106.3516)" class="st1 st2 st3">Visual design</text>
<g>
	<polygon class="st0" points="81.7,36.2 83.7,34.2 87.5,30.4 89.4,28.5 76.8,15.9 63.4,29.3 76,41.9 77.9,40 	"/>
	<path class="st0" d="M131.4,17.6L117.9,4.1L97.5,24.5l6.7,6.7l-2.1,2.1l-6.7-6.7l-1.9,1.9L107,41.9L131.4,17.6z M117.9,14.7
		c1.6,0,2.9,1.3,2.9,2.9s-1.3,2.9-2.9,2.9c-1.6,0-2.9-1.3-2.9-2.9S116.3,14.7,117.9,14.7z"/>
	<polygon class="st0" points="74.1,48 80.8,54.7 78.7,56.8 72,50 68.2,53.8 74.9,60.6 72.9,62.6 66.1,55.9 58.4,63.7 71.8,77.1 
		89.4,59.5 76,46.1 	"/>
	
		<rect x="109.9" y="68.6" transform="matrix(0.7071 -0.7071 0.7071 0.7071 -17.0365 108.4015)" class="st1" width="24.9" height="12.4"/>
	<polygon class="st1" points="120.8,55.7 109.1,44 107,46.1 116.7,55.7 103.2,69.2 93.6,59.5 91.5,61.6 103.2,73.3 	"/>
	<polygon class="st1" points="94.6,60.5 63.4,29.3 76.8,15.9 108.3,47.4 110.4,45.3 76.8,11.7 59.2,29.3 92.5,62.6 	"/>
	<polygon class="st1" points="62.2,5.9 47.5,0 53.4,14.7 	"/>
	<polygon class="st1" points="95.5,26.6 102.2,33.3 104.3,31.2 97.5,24.5 117.9,4.1 131.4,17.6 107,41.9 109.1,44 135.5,17.6 
		117.9,0 95.5,22.4 93.4,24.5 91.5,26.4 93.6,28.5 	"/>
	<polygon class="st1" points="71.8,77.1 58.4,63.7 66.1,55.9 72.9,62.6 74.9,60.6 68.2,53.8 72,50 78.7,56.8 80.8,54.7 74.1,48 
		76,46.1 73.9,44 72,45.9 69.9,48 66.1,51.8 64.1,53.8 56.3,61.6 47.5,70.4 65.1,88 73.9,79.2 91.5,61.6 89.4,59.5 	"/>
	<circle class="st1" cx="117.9" cy="17.6" r="2.9"/>
</g>
</svg>
