<?xml version="1.0" encoding="utf-8"?>
<!-- Generator: Adobe Illustrator 21.0.0, SVG Export Plug-In . SVG Version: 6.00 Build 0)  -->
<svg version="1.1" id="Layer_1" xmlns="http://www.w3.org/2000/svg" xmlns:xlink="http://www.w3.org/1999/xlink" x="0px" y="0px"
	 viewBox="0 0 32 32" style="enable-background:new 0 0 32 32;" xml:space="preserve">
<style type="text/css">
	.st0{fill:none;}
	.st1{fill:#FFFFFF;}
</style>
<path class="st0" d="M28,7.1l-3.2-3.2l-6.2,6.2l1.6,1.6l-0.7,0.7l-1.6-1.6l-0.5,0.5l3.2,3.2L28,7.1z M24.9,6c0.6,0,1,0.4,1,1
	s-0.4,1-1,1s-1-0.4-1-1C23.9,6.5,24.3,6,24.9,6z"/>
<polygon class="st0" points="17.6,14.4 17.5,14.4 15.9,12.8 14.6,14.1 16.2,15.7 15.5,16.4 13.9,14.8 12.8,16 16,19.2 19.2,16 "/>
<polygon class="st0" points="13.3,12.6 14.6,11.4 11,7.8 7.8,11 11.4,14.6 12.6,13.3 "/>
<polygon class="st0" points="10.6,18.1 12.2,19.7 11.5,20.4 9.9,18.8 8.6,20.1 10.2,21.7 9.5,22.4 7.9,20.8 5.3,23.4 8.5,26.6 
	14.6,20.6 11.4,17.4 "/>
<rect x="18" y="18.4" transform="matrix(0.7071 -0.7071 0.7071 0.7071 -8.421 20.2392)" class="st0" width="4.5" height="3.7"/>
<g>
	<polygon class="st1" points="24.9,1 17.3,8.6 16.6,9.3 16,10 17.4,11.4 17.9,10.8 19.5,12.4 20.2,11.7 18.6,10.1 24.8,3.9 28,7.1 
		20.6,14.6 22,16 31,7 	"/>
	<polygon class="st1" points="8.5,26.6 5.3,23.4 7.9,20.8 9.5,22.4 10.2,21.7 8.6,20.1 9.9,18.8 11.5,20.4 12.2,19.7 10.6,18.1 
		11.4,17.4 10,16 9.3,16.6 8.6,17.3 7.3,18.6 6.6,19.3 4,22 1,25 7,31 10,28 16,22 14.6,20.6 	"/>
</g>
<circle class="st1" cx="24.9" cy="7" r="1"/>
<rect x="22.3" y="24.4" transform="matrix(0.7071 -0.7071 0.7071 0.7071 -10.9453 26.5249)" class="st1" width="8.5" height="4.2"/>
<path class="st1" d="M22,16l-1.4-1.4l-3.2-3.2L16,10l-5-5l-6,6l5,5l1.4,1.4l3.2,3.2L16,22l4,4l6-6L22,16z M17.4,20.6L16,19.2
	L12.8,16l-1.4-1.4L7.8,11L11,7.8l3.6,3.6l3,3l1.6,1.6l1.4,1.4l2.6,2.6L20,23.2L17.4,20.6z"/>
<polygon class="st1" points="6,3 1,1 3,6 "/>
</svg>
