<!--?xml version="1.0" encoding="utf-8"?-->
<!-- Generator: Adobe Illustrator 19.2.1, SVG Export Plug-In . SVG Version: 6.00 Build 0)  -->
<svg version="1.1" id="Layer_1" xmlns="http://www.w3.org/2000/svg" xmlns:xlink="http://www.w3.org/1999/xlink" x="0px" y="0px" viewBox="0 0 40 40" style="enable-background:new 0 0 40 40;" xml:space="preserve">
<style type="text/css">
	.st0{fill:#000;}
</style>
<g>
	<g>
		<g>
			
				<rect x="26.8" y="28.7" transform="matrix(0.7071 -0.7071 0.7071 0.7071 -12.7353 31.1141)" class="st0" width="8.8" height="4.4"></rect>
			<path class="st0" d="M15.1,8.5l-6.2,6.2l15.6,15.6l6.2-6.2L15.1,8.5z M10.3,14.8l4.8-4.8l14.1,14.1l-4.8,4.8L10.3,14.8z"></path>
			<polygon class="st0" points="4.6,4.4 6.7,9.6 9.9,6.5 			"></polygon>
		</g>
	</g>
	<g>
		<g>
			<circle class="st0" cx="29.1" cy="10.6" r="1"></circle>
			<g>
				<polygon class="st0" points="20.7,14.2 21.5,13.4 23.9,15.8 24.7,15.1 22.3,12.7 29.1,5.9 33.9,10.6 25.5,19 26.2,19.7 
					35.4,10.6 29.1,4.4 21.1,12.3 20.4,13.1 20,13.5 				"></polygon>
				<polygon class="st0" points="19.3,25.2 12.8,31.8 8,27 10.7,24.2 13.1,26.6 13.9,25.9 11.5,23.5 12.8,22.1 15.2,24.5 15.9,23.8 
					13.6,21.4 14.5,20.5 13.8,19.7 12.8,20.7 12.1,21.4 10.7,22.8 10,23.5 7.2,26.2 4.1,29.4 10.4,35.6 13.5,32.5 20,26 				"></polygon>
			</g>
		</g>
	</g>
</g>
</svg>