<?xml version="1.0" encoding="utf-8"?>
<!-- Generator: Adobe Illustrator 19.2.1, SVG Export Plug-In . SVG Version: 6.00 Build 0)  -->
<svg version="1.1" id="Layer_1" xmlns="http://www.w3.org/2000/svg" xmlns:xlink="http://www.w3.org/1999/xlink" x="0px" y="0px"
	 viewBox="0 0 245 118" style="enable-background:new 0 0 245 118;" xml:space="preserve">
<style type="text/css">
	.st0{fill:none;}
	.st1{fill:#323C3C;}
	.st2{font-family:'MyriadPro-Regular';}
	.st3{font-size:18px;}
</style>
<g>
	<polygon class="st0" points="112.7,36.2 114.7,34.2 118.5,30.4 120.4,28.5 107.8,15.9 94.4,29.3 107,41.9 108.9,40 	"/>
	<path class="st0" d="M162.4,17.6L148.9,4.1l-20.4,20.4l6.7,6.7l-2.1,2.1l-6.7-6.7l-1.9,1.9L138,41.9L162.4,17.6z M148.9,14.7
		c1.6,0,2.9,1.3,2.9,2.9s-1.3,2.9-2.9,2.9c-1.6,0-2.9-1.3-2.9-2.9S147.3,14.7,148.9,14.7z"/>
	<polygon class="st0" points="105.1,48 111.8,54.7 109.7,56.8 103,50 99.2,53.8 105.9,60.6 103.9,62.6 97.1,55.9 89.4,63.7 
		102.8,77.1 120.4,59.5 107,46.1 	"/>
	
		<rect x="140.9" y="68.6" transform="matrix(0.7071 -0.7071 0.7071 0.7071 -7.9569 130.3218)" class="st1" width="24.9" height="12.4"/>
	<polygon class="st1" points="151.8,55.7 140.1,44 138,46.1 147.7,55.7 134.2,69.2 124.6,59.5 122.5,61.6 134.2,73.3 	"/>
	<polygon class="st1" points="125.6,60.5 94.4,29.3 107.8,15.9 139.3,47.4 141.4,45.3 107.8,11.7 90.2,29.3 123.5,62.6 	"/>
	<polygon class="st1" points="93.2,5.9 78.5,0 84.4,14.7 	"/>
	<polygon class="st1" points="126.5,26.6 133.2,33.3 135.3,31.2 128.5,24.5 148.9,4.1 162.4,17.6 138,41.9 140.1,44 166.5,17.6 
		148.9,0 126.5,22.4 124.4,24.5 122.5,26.4 124.6,28.5 	"/>
	<polygon class="st1" points="102.8,77.1 89.4,63.7 97.1,55.9 103.9,62.6 105.9,60.6 99.2,53.8 103,50 109.7,56.8 111.8,54.7 
		105.1,48 107,46.1 104.9,44 103,45.9 100.9,48 97.1,51.8 95.1,53.8 87.3,61.6 78.5,70.4 96.1,88 104.9,79.2 122.5,61.6 120.4,59.5 
			"/>
	<circle class="st1" cx="148.9" cy="17.6" r="2.9"/>
</g>
<rect y="93.5" class="st0" width="245" height="24.5"/>
<text transform="matrix(1 0 0 1 73.1987 106.2803)" class="st1 st2 st3">Visual design</text>
</svg>
